<?xml version="1.0" standalone="no"?>
<!DOCTYPE svg PUBLIC "-//W3C//DTD SVG 20010904//EN"
 "http://www.w3.org/TR/2001/REC-SVG-20010904/DTD/svg10.dtd">
<svg version="1.0" xmlns="http://www.w3.org/2000/svg"
 width="1024.000000pt" height="1024.000000pt" viewBox="0 0 1024.000000 1024.000000"
 preserveAspectRatio="xMidYMid meet">
<metadata>
Created by potrace 1.11, written by Peter Selinger 2001-2013
</metadata>
<g transform="translate(0.000000,1024.000000) scale(0.100000,-0.100000)"
fill="#000000" stroke="none">
<path d="M935 10219 c-472 -97 -820 -448 -914 -919 -21 -102 -21 -107 -21
-4174 0 -2746 3 -4092 10 -4132 52 -296 183 -535 392 -714 144 -122 287 -196
483 -248 l100 -27 4095 -3 c4520 -3 4172 -8 4373 59 172 58 317 148 447 279
131 130 221 275 278 447 67 198 62 -149 62 4339 0 4062 0 4072 -20 4174 -95
474 -444 823 -919 920 -99 20 -117 20 -4188 19 -3950 -1 -4091 -2 -4178 -20z
m5915 -1385 c0 -4 -430 -773 -956 -1710 l-956 -1704 -1900 0 c-1806 0 -1900 1
-1894 18 9 21 1875 3372 1889 3390 7 9 402 12 1913 12 1047 0 1904 -3 1904 -6z
m1506 -2004 c516 -932 938 -1702 938 -1710 0 -8 -418 -769 -928 -1690 -993
-1790 -948 -1710 -956 -1710 -3 0 -89 150 -192 332 -103 183 -531 947 -952
1697 -421 750 -766 1367 -766 1370 0 4 396 714 881 1577 1083 1929 1030 1836
1034 1832 1 -2 425 -766 941 -1698z m-2486 -3697 c513 -918 939 -1678 947
-1691 l13 -22 -1902 2 -1903 3 -210 380 c-116 209 -524 945 -907 1635 -382
690 -707 1279 -722 1308 l-26 52 1888 0 1889 0 933 -1667z"/>
</g>
</svg>
